<svg xmlns="http://www.w3.org/2000/svg" width="105" height="35" viewBox="0 0 355.259 101.923">
  <path fill="#fff" d="M355.259 91.705a10.218 10.218 0 0 1-10.23 10.217H10.243A10.231 10.231 0 0 1 0 91.705V10.23A10.245 10.245 0 0 1 10.243 0h334.783a10.229 10.229 0 0 1 10.23 10.23v81.475Z" data-name="Path 2259"/>
  <path d="M355.259 91.705a10.218 10.218 0 0 1-10.23 10.217H10.243A10.231 10.231 0 0 1 0 91.705V10.23A10.245 10.245 0 0 1 10.243 0h334.783a10.229 10.229 0 0 1 10.23 10.23v81.475Z" data-name="Path 2261"/>
  <path fill="#fff" d="M78.015 50.401c-.077-8.6 7.042-12.78 7.367-12.975a15.844 15.844 0 0 0-12.477-6.744c-5.248-.552-10.34 3.14-13.013 3.14-2.727 0-6.844-3.086-11.281-3a16.612 16.612 0 0 0-13.982 8.526c-6.046 10.465-1.537 25.843 4.256 34.3 2.9 4.145 6.284 8.768 10.716 8.606 4.336-.176 5.956-2.761 11.188-2.761 5.184 0 6.705 2.761 11.225 2.657 4.653-.072 7.583-4.161 10.38-8.341a34.191 34.191 0 0 0 4.747-9.665 14.961 14.961 0 0 1-9.125-13.749Zm-8.539-25.283a15.218 15.218 0 0 0 3.486-10.908 15.51 15.51 0 0 0-10.027 5.186c-2.151 2.513-4.072 6.632-3.576 10.5 3.791.287 7.684-1.908 10.117-4.778Z" data-name="Path 2262"/>
  <g data-name="Group 7622">
    <path fill="#fff" d="M140.818 81.664h-6.06l-3.319-10.427h-11.538l-3.162 10.427h-5.9l11.434-35.5h7.06Zm-10.38-14.8-3-9.27q-.476-1.42-1.79-6.688h-.107q-.528 2.265-1.686 6.688l-2.951 9.27Zm39.725 1.689q0 6.53-3.549 10.321a10.406 10.406 0 0 1-7.893 3.372q-5.087 0-7.311-3.631v13.431h-5.689V64.48q0-4.1-.211-8.413h5l.318 4.056h.107a10.122 10.122 0 0 1 16.2-1.006 14.153 14.153 0 0 1 3.028 9.434Zm-5.8.208a10.551 10.551 0 0 0-1.686-6.165 5.829 5.829 0 0 0-4.952-2.526 5.917 5.917 0 0 0-3.818 1.4 6.471 6.471 0 0 0-2.239 3.663 7.428 7.428 0 0 0-.264 1.731v4.259a6.847 6.847 0 0 0 1.713 4.716 5.687 5.687 0 0 0 4.451 1.923 5.831 5.831 0 0 0 5-2.475 10.893 10.893 0 0 0 1.8-6.528Zm35.245-.208q0 6.53-3.549 10.321a10.412 10.412 0 0 1-7.9 3.372q-5.087 0-7.311-3.631v13.431h-5.689V64.48q0-4.1-.211-8.413h5l.318 4.057h.107a10.124 10.124 0 0 1 16.2-1.006 14.166 14.166 0 0 1 3.04 9.433Zm-5.8.208a10.551 10.551 0 0 0-1.689-6.165 5.82 5.82 0 0 0-4.947-2.526 5.941 5.941 0 0 0-3.824 1.4 6.467 6.467 0 0 0-2.236 3.663 7.6 7.6 0 0 0-.267 1.731v4.259a6.87 6.87 0 0 0 1.71 4.716 5.7 5.7 0 0 0 4.456 1.923 5.825 5.825 0 0 0 5-2.475 10.893 10.893 0 0 0 1.804-6.528Zm38.725 2.948a9.482 9.482 0 0 1-3.157 7.376q-3.466 3.105-9.672 3.108a16.887 16.887 0 0 1-9.195-2.211l1.315-4.74a15.83 15.83 0 0 0 8.218 2.214 7.755 7.755 0 0 0 5-1.448 4.731 4.731 0 0 0 1.8-3.868 4.957 4.957 0 0 0-1.478-3.636 13.7 13.7 0 0 0-4.9-2.737q-9.326-3.477-9.328-10.169a8.977 8.977 0 0 1 3.293-7.162 13.022 13.022 0 0 1 8.72-2.793 17.235 17.235 0 0 1 8.061 1.686l-1.427 4.636a14.1 14.1 0 0 0-6.823-1.633 6.94 6.94 0 0 0-4.707 1.475 4.221 4.221 0 0 0-1.425 3.216 4.347 4.347 0 0 0 1.636 3.476 18.428 18.428 0 0 0 5.164 2.734 17.5 17.5 0 0 1 6.743 4.316 8.994 8.994 0 0 1 2.169 6.157Zm18.857-11.372h-6.262v12.426q0 4.742 3.319 4.738a10 10 0 0 0 2.527-.264l.157 4.319a12.893 12.893 0 0 1-4.424.63 6.819 6.819 0 0 1-5.27-2.057q-1.893-2.057-1.9-6.9V60.323h-3.736v-4.267h3.736v-4.687l5.591-1.686v6.373h6.27Zm28.236 8.32a14.04 14.04 0 0 1-3.373 9.691 12.024 12.024 0 0 1-9.376 3.9 11.462 11.462 0 0 1-8.984-3.735 13.614 13.614 0 0 1-3.346-9.427 13.926 13.926 0 0 1 3.45-9.742 11.961 11.961 0 0 1 9.3-3.793 11.7 11.7 0 0 1 9.059 3.74 13.437 13.437 0 0 1 3.272 9.364Zm-5.9.131a11.46 11.46 0 0 0-1.524-6.039 5.632 5.632 0 0 0-5.112-3.049 5.713 5.713 0 0 0-5.216 3.049 11.65 11.65 0 0 0-1.526 6.146 11.426 11.426 0 0 0 1.526 6.042 5.835 5.835 0 0 0 10.281-.051 11.506 11.506 0 0 0 1.572-6.1Zm24.4-7.717a9.9 9.9 0 0 0-1.793-.157 5.369 5.369 0 0 0-4.637 2.267 8.538 8.538 0 0 0-1.42 5.055v13.431h-5.689V64.123q.008-4.031-.166-8.059h4.955l.208 4.9h.157a8.782 8.782 0 0 1 2.844-4.057 6.88 6.88 0 0 1 4.112-1.371 9.137 9.137 0 0 1 1.422.1Zm25.442 6.586a13.333 13.333 0 0 1-.208 2.58h-17.061a7.423 7.423 0 0 0 2.476 5.8 8.469 8.469 0 0 0 5.582 1.787 18.881 18.881 0 0 0 6.906-1.208l.891 3.945a21.354 21.354 0 0 1-8.584 1.582q-5.956 0-9.355-3.5t-3.4-9.4a14.66 14.66 0 0 1 3.165-9.635 10.9 10.9 0 0 1 8.952-4.105 9.543 9.543 0 0 1 8.381 4.105 13.813 13.813 0 0 1 2.257 8.051Zm-5.424-1.475a7.7 7.7 0 0 0-1.1-4.372 4.968 4.968 0 0 0-4.531-2.374 5.394 5.394 0 0 0-4.528 2.318 8.495 8.495 0 0 0-1.684 4.423Z" data-name="Path 2264"/>
  </g>
  <g data-name="Group 7623">
    <path fill="#fff" d="M118.264 33.614a36.333 36.333 0 0 1-4.09-.208V16.243a30.976 30.976 0 0 1 4.816-.363c6.524 0 9.528 3.209 9.528 8.44-.003 6.034-3.554 9.294-10.254 9.294Zm.955-15.533a11.414 11.414 0 0 0-2.252.181v13.047a14.765 14.765 0 0 0 1.889.077c4.275 0 6.708-2.433 6.708-6.989 0-4.062-2.2-6.316-6.348-6.316Zm18.662 15.664c-3.677 0-6.06-2.745-6.06-6.472 0-3.884 2.433-6.653 6.268-6.653 3.624 0 6.06 2.614 6.06 6.447-.003 3.933-2.514 6.677-6.271 6.677Zm.107-11.081c-2.02 0-3.314 1.889-3.314 4.53 0 2.59 1.321 4.479 3.287 4.479s3.287-2.019 3.287-4.532c-.003-2.562-1.297-4.478-3.263-4.478Zm27.128-1.785-3.936 12.58h-2.564l-1.63-5.463a41.4 41.4 0 0 1-1.011-4.063h-.053a27.233 27.233 0 0 1-1.009 4.063l-1.734 5.463h-2.595l-3.7-12.58h2.874l1.425 5.981q.5 2.137.854 4.039h.053c.206-1.059.542-2.382 1.035-4.012l1.788-6h2.279l1.71 5.877c.414 1.424.75 2.822 1.011 4.143h.075a36.209 36.209 0 0 1 .854-4.143l1.522-5.883Zm14.489 12.58h-2.8v-7.224c0-2.225-.854-3.34-2.537-3.34a2.9 2.9 0 0 0-2.8 3.081v7.483h-2.8v-8.984c0-1.112-.027-2.3-.1-3.6h2.46l.131 1.942h.077a4.521 4.521 0 0 1 3.989-2.2c2.642 0 4.376 2.019 4.376 5.306Zm7.711 0h-2.8V15.106h2.8Zm10.2.285c-3.674 0-6.06-2.745-6.06-6.472 0-3.884 2.433-6.653 6.265-6.653 3.626 0 6.06 2.614 6.06 6.447-.005 3.934-2.517 6.678-6.273 6.678Zm.1-11.081c-2.02 0-3.314 1.889-3.314 4.53 0 2.59 1.323 4.479 3.285 4.479s3.287-2.019 3.287-4.532c-.001-2.561-1.292-4.477-3.261-4.477Zm17.186 10.8-.2-1.448h-.075a4.3 4.3 0 0 1-3.68 1.734 3.658 3.658 0 0 1-3.856-3.7c0-3.105 2.692-4.711 7.354-4.711v-.232c0-1.657-.878-2.486-2.612-2.486a5.889 5.889 0 0 0-3.287.934l-.568-1.838a8.045 8.045 0 0 1 4.32-1.088c3.287 0 4.947 1.734 4.947 5.2v4.634a19 19 0 0 0 .181 3h-2.521Zm-.384-6.266c-3.106 0-4.664.752-4.664 2.537a1.783 1.783 0 0 0 1.919 1.966 2.678 2.678 0 0 0 2.746-2.561Zm16.3 6.266-.131-2.019h-.077a4.218 4.218 0 0 1-4.04 2.3c-3.034 0-5.28-2.668-5.28-6.421 0-3.935 2.329-6.706 5.51-6.706a3.781 3.781 0 0 1 3.549 1.71h.056v-7.221h2.8v14.963c0 1.216.029 2.355.1 3.39h-2.49Zm-.414-7.4a3.044 3.044 0 0 0-2.946-3.262c-2.073 0-3.341 1.838-3.341 4.425 0 2.537 1.315 4.273 3.285 4.273a3.14 3.14 0 0 0 3-3.34Zm20.546 7.688c-3.674 0-6.057-2.745-6.057-6.472 0-3.884 2.433-6.653 6.265-6.653 3.626 0 6.06 2.614 6.06 6.447.002 3.927-2.508 6.671-6.268 6.671Zm.1-11.081c-2.017 0-3.311 1.889-3.311 4.53 0 2.59 1.321 4.479 3.285 4.479s3.287-2.019 3.287-4.532c.009-2.568-1.285-4.484-3.257-4.484Zm21.2 10.8h-2.8v-7.235c0-2.225-.854-3.34-2.537-3.34a2.9 2.9 0 0 0-2.794 3.081v7.483h-2.8v-8.984c0-1.112-.027-2.3-.1-3.6h2.46l.131 1.942h.077a4.518 4.518 0 0 1 3.986-2.2c2.642 0 4.379 2.019 4.379 5.306Zm18.814-10.484h-3.07v6.101c0 1.555.539 2.331 1.628 2.331a5.509 5.509 0 0 0 1.242-.131l.077 2.123a6.2 6.2 0 0 1-2.169.312c-2.2 0-3.522-1.216-3.522-4.4v-6.346h-1.836v-2.1h1.836v-2.3l2.746-.83v3.132h3.077Zm14.8 10.484h-2.794v-7.183c0-2.251-.851-3.39-2.537-3.39a2.742 2.742 0 0 0-2.8 2.977v7.584h-2.794V15.106h2.794v7.557h.056a4.242 4.242 0 0 1 3.784-2.046c2.663 0 4.291 2.07 4.291 5.359v7.483Zm15.166-5.618h-8.392a3.611 3.611 0 0 0 3.965 3.727 9.453 9.453 0 0 0 3.391-.595l.435 1.942a10.507 10.507 0 0 1-4.221.776c-3.936 0-6.265-2.486-6.265-6.341s2.385-6.757 5.95-6.757c3.215 0 5.232 2.382 5.232 5.981a5.387 5.387 0 0 1-.085 1.256Zm-2.564-1.993c0-1.942-.979-3.313-2.767-3.313-1.606 0-2.876 1.4-3.058 3.313Z" data-name="Path 2265"/>
  </g>
</svg>