<svg xmlns="http://www.w3.org/2000/svg" width="105" height="35" viewBox="0 0 345.404 101.922">
  <defs>
    <linearGradient id="a" x1="2.472" x2="2.361" y1="1.035" y2="1.005" gradientUnits="objectBoundingBox">
      <stop offset="0" stop-color="#00a0ff"/>
      <stop offset=".007" stop-color="#00a1ff"/>
      <stop offset=".26" stop-color="#00beff"/>
      <stop offset=".512" stop-color="#00d2ff"/>
      <stop offset=".76" stop-color="#00dfff"/>
      <stop offset="1" stop-color="#00e3ff"/>
    </linearGradient>
    <linearGradient id="b" x1="1.95" x2="1.69" y1="1.879" y2="1.879" gradientUnits="objectBoundingBox">
      <stop offset="0" stop-color="#ffe000"/>
      <stop offset=".409" stop-color="#ffbd00"/>
      <stop offset=".775" stop-color="orange"/>
      <stop offset="1" stop-color="#ff9c00"/>
    </linearGradient>
    <linearGradient id="c" x1="1.926" x2="1.835" y1=".946" y2=".793" gradientUnits="objectBoundingBox">
      <stop offset="0" stop-color="#ff3a44"/>
      <stop offset="1" stop-color="#c31162"/>
    </linearGradient>
    <linearGradient id="d" x1="1.856" x2="1.897" y1="2.093" y2="2.025" gradientUnits="objectBoundingBox">
      <stop offset="0" stop-color="#32a071"/>
      <stop offset=".068" stop-color="#2da771"/>
      <stop offset=".476" stop-color="#15cf74"/>
      <stop offset=".801" stop-color="#06e775"/>
      <stop offset="1" stop-color="#00f076"/>
    </linearGradient>
  </defs>
  <path fill-rule="evenodd" d="M332.607 101.922H12.8A12.8 12.8 0 0 1 0 89.182V12.74A12.788 12.788 0 0 1 12.8 0h319.807a12.792 12.792 0 0 1 12.8 12.74v76.442a12.808 12.808 0 0 1-12.8 12.74Z" data-name="Path 2266"/>
  <path fill="#fff" d="M181.96 33.712a7.755 7.755 0 0 1-5.789-2.4 8.163 8.163 0 0 1-2.338-5.846 7.98 7.98 0 0 1 2.338-5.84 7.734 7.734 0 0 1 5.783-2.4 7.835 7.835 0 0 1 5.789 2.4 8.461 8.461 0 0 1 0 11.679 7.691 7.691 0 0 1-5.783 2.407Zm-68.632 0a8.039 8.039 0 0 1-5.814-2.364 8.235 8.235 0 0 1 5.814-14.106 8.109 8.109 0 0 1 3.247.674 6.567 6.567 0 0 1 2.471 1.766l.152.184-1.721 1.69-.178-.21a4.894 4.894 0 0 0-4-1.722 5.523 5.523 0 0 0-3.984 1.627 6.177 6.177 0 0 0 0 8.464 5.826 5.826 0 0 0 8.077 0 4.406 4.406 0 0 0 1.168-2.65h-5.522v-2.376h7.892l.032.216a8.731 8.731 0 0 1 .114 1.195 7.153 7.153 0 0 1-1.97 5.274 7.685 7.685 0 0 1-5.778 2.338Zm91.254-.337h-2.435l-7.454-11.927.064 2.148v9.773h-2.434v-15.79h2.777l.076.121 7.01 11.235-.063-2.141V17.58h2.459Zm-40.909 0h-2.465v-13.42h-4.276v-2.377h11.012v2.377h-4.277v13.42Zm-8.751 0h-2.459v-15.8h2.459Zm-13.82 0h-2.458v-13.42h-4.277v-2.377h11.012v2.377h-4.277Zm-8.292-.025h-9.43V17.578h9.43v2.377h-6.964v4.334h6.284v2.346h-6.284v4.334h6.964Zm45.166-3.666a5.444 5.444 0 0 0 3.985 1.652 5.305 5.305 0 0 0 3.984-1.652 6.264 6.264 0 0 0 .006-8.413 5.452 5.452 0 0 0-3.985-1.652 5.282 5.282 0 0 0-3.978 1.652 6.273 6.273 0 0 0-.013 8.413Z" data-name="Path 2268"/>
  <path fill="#fff" fill-rule="evenodd" d="M173.604 55.431a10.841 10.841 0 1 0 10.872 10.841 10.67 10.67 0 0 0-10.872-10.841Zm0 17.385a6.587 6.587 0 1 1 6.113-6.57 6.273 6.273 0 0 1-6.113 6.57Zm-23.72-17.385a10.841 10.841 0 1 0 10.872 10.841 10.671 10.671 0 0 0-10.872-10.841Zm0 17.385a6.587 6.587 0 1 1 6.113-6.57 6.273 6.273 0 0 1-6.113 6.57Zm-28.226-14.075v4.588h11.012a9.671 9.671 0 0 1-2.491 5.776 11.235 11.235 0 0 1-8.5 3.368 12.233 12.233 0 0 1 0-24.464 11.753 11.753 0 0 1 8.292 3.285l3.253-3.253a16 16 0 0 0-11.52-4.645 16.822 16.822 0 1 0 0 33.639 15.4 15.4 0 0 0 11.749-4.727c3.031-3.031 3.991-7.307 3.991-10.758a14.265 14.265 0 0 0-.254-2.859h-15.543c.011-.007.011.051.011.051Zm115.45 3.571c-.909-2.434-3.654-6.907-9.283-6.907-5.579 0-10.218 4.391-10.218 10.84a10.6 10.6 0 0 0 10.758 10.84 10.76 10.76 0 0 0 9.029-4.81l-3.679-2.465a6.163 6.163 0 0 1-5.324 3 5.537 5.537 0 0 1-5.268-3.285l14.495-6c-.001.001-.509-1.212-.509-1.212Zm-14.78 3.622a5.95 5.95 0 0 1 5.662-6.316 4.179 4.179 0 0 1 4.023 2.294Zm-11.774 10.5h4.759V44.591h-4.759Zm-7.816-18.6h-.171a7.509 7.509 0 0 0-5.719-2.434 10.84 10.84 0 0 0 0 21.661 7.489 7.489 0 0 0 5.719-2.465h.171v1.557c0 4.137-2.212 6.367-5.776 6.367a6.009 6.009 0 0 1-5.465-3.85l-4.136 1.728a10.347 10.347 0 0 0 9.594 6.4c5.579 0 10.307-3.285 10.307-11.3V56.054h-4.5v1.786Zm-5.465 14.977a6.215 6.215 0 0 1-6.029-6.539c0-3.825 2.745-6.6 6.029-6.6 3.253 0 5.776 2.8 5.776 6.6.033 3.799-2.514 6.544-5.775 6.544Zm62.12-28.225h-11.381v31.847h4.759V64.378h6.628c5.268 0 10.447-3.819 10.447-9.881s-5.16-9.906-10.453-9.906Zm.139 15.339h-6.766V48.996h6.766a5.466 5.466 0 1 1 0 10.929Zm29.389-4.556c-3.457 0-7.022 1.532-8.5 4.867l4.219 1.754a4.525 4.525 0 0 1 4.334-2.351c2.466 0 4.956 1.474 5.013 4.1v.337a10.655 10.655 0 0 0-4.955-1.22c-4.557 0-9.176 2.491-9.176 7.161 0 4.277 3.737 7.022 7.9 7.022a6.7 6.7 0 0 0 6.056-3.114h.171v2.471h4.588v-12.2c.002-5.677-4.217-8.822-9.65-8.822Zm-.6 17.443c-1.557 0-3.736-.763-3.736-2.72 0-2.466 2.72-3.4 5.039-3.4a8.265 8.265 0 0 1 4.334 1.073 5.729 5.729 0 0 1-5.634 5.051Zm26.987-16.763-5.465 13.814h-.172l-5.661-13.814h-5.122l8.5 19.311-4.843 10.736h4.956l13.071-30.043Zm-42.841 20.385h4.76V44.591h-4.76Z" data-name="Path 2269"/>
  <path fill="url(#a)" fill-rule="evenodd" d="M401.263 299.572a5.161 5.161 0 0 0-1.163 3.6v56.343a4.912 4.912 0 0 0 1.188 3.565l.2.171 31.568-31.568v-.705L401.46 299.4Z" data-name="Path 2270" transform="translate(-374.677 -280.379)"/>
  <path fill="url(#b)" fill-rule="evenodd" d="M928.829 652.3 918.3 641.766v-.737l10.529-10.529.229.14 12.454 7.079c3.564 2.008 3.564 5.325 0 7.358l-12.454 7.079Z" data-name="Path 2271" transform="translate(-859.949 -590.44)"/>
  <path fill="url(#c)" fill-rule="evenodd" d="M460.923 812.758 450.165 802 418.4 833.765c1.163 1.245 3.114 1.385 5.293.171l37.23-21.178" data-name="Path 2272" transform="translate(-391.814 -751.043)"/>
  <path fill="url(#d)" fill-rule="evenodd" d="m460.923 308.48-37.229-21.147c-2.18-1.245-4.137-1.074-5.293.172l31.765 31.733Z" data-name="Path 2273" transform="translate(-391.814 -268.281)"/>
  <path fill-rule="evenodd" d="M68.88 61.486 31.905 82.493c-2.065 1.188-3.908 1.106-5.1.025l-.2.2.2.171c1.188 1.074 3.031 1.163 5.1-.025l37.229-21.147Z" data-name="Path 2274" opacity=".2"/>
  <path fill-rule="evenodd" d="m81.563 54.268-12.715 7.218.228.229 12.455-7.078c1.785-1.017 2.663-2.351 2.663-3.679-.109 1.22-1.017 2.375-2.631 3.31Z" data-name="Path 2275" opacity=".12"/>
  <path fill="#fff" fill-rule="evenodd" d="m31.879 19.421 49.684 28.225a4.682 4.682 0 0 1 2.662 3.311c0-1.328-.877-2.662-2.662-3.679L31.879 19.053c-3.565-2.04-6.456-.337-6.456 3.736v.368c0-4.074 2.891-5.75 6.456-3.736Z" data-name="Path 2276" opacity=".25"/>
</svg>